<svg width="1589" height="475" viewBox="0 0 1589 475" fill="none" xmlns="http://www.w3.org/2000/svg">
<path d="M248.52 44.76V348H202.92L183.16 329C170.24 346.227 146.427 354.84 111.72 354.84C93.48 354.84 78.1533 351.547 65.74 344.96C53.3267 338.373 43.1933 329.633 35.34 318.74C27.74 307.593 22.1667 294.673 18.62 279.98C15.3267 265.287 13.68 249.96 13.68 234C13.68 218.8 15.2 204.36 18.24 190.68C21.28 176.747 26.3467 164.587 33.44 154.2C40.5333 143.813 49.9067 135.58 61.56 129.5C73.2133 123.167 87.6533 120 104.88 120H157.32V51.6L248.52 44.76ZM111.72 199.04V288.34H125.78C136.167 288.34 143.767 287.453 148.58 285.68C153.647 283.653 156.56 279.093 157.32 272V179.66H143.26C132.113 179.66 124.007 180.8 118.94 183.08C114.127 185.36 111.72 190.68 111.72 199.04Z" fill="#819FBD"/>
<path d="M420.24 120H511.44V288.34H525.5C536.647 288.34 544.627 287.2 549.44 284.92C554.507 282.64 557.04 277.32 557.04 268.96V120H648.24V348H602.64L576.04 322.16C557.8 343.947 531.833 354.84 498.14 354.84C471.033 354.84 451.273 349.14 438.86 337.74C426.447 326.087 420.24 306.707 420.24 279.6V120Z" fill="#B89735"/>
<g style="mix-blend-mode:lighten" opacity="0.7">
<path d="M285.24 120H376.44V288.34H390.5C401.647 288.34 409.627 287.2 414.44 284.92C419.507 282.64 422.04 277.32 422.04 268.96V120H513.24V348H467.64L441.04 322.16C422.8 343.947 396.833 354.84 363.14 354.84C336.033 354.84 316.273 349.14 303.86 337.74C291.447 326.087 285.24 306.707 285.24 279.6V120Z" fill="#D5AF3C"/>
</g>
<path d="M822.48 348V188.4H816.02C811.967 188.4 808.04 188.527 804.24 188.78C800.693 189.033 797.527 189.92 794.74 191.44C791.953 192.707 789.8 194.733 788.28 197.52C786.76 200.307 786 204.233 786 209.3V348H694.8V120H740.4L760.92 140.9C779.413 122.407 803.733 113.16 833.88 113.16C863.773 113.16 885.56 119.367 899.24 131.78C918.24 119.367 939.773 113.16 963.84 113.16C988.413 113.16 1007.41 117.847 1020.84 127.22C1034.52 136.34 1041.36 149.133 1041.36 165.6V348H950.16V188.4H943.7C940.153 188.4 936.607 188.527 933.06 188.78C929.513 189.033 926.347 189.793 923.56 191.06C921.027 192.073 918.747 193.847 916.72 196.38C914.947 198.913 913.933 202.333 913.68 206.64V348H822.48ZM1084.45 336.6V51.6L1175.65 44.76V120.38C1186.8 115.567 1202 113.16 1221.25 113.16C1239.49 113.16 1254.82 116.453 1267.23 123.04C1279.64 129.627 1289.65 138.493 1297.25 149.64C1305.1 160.533 1310.68 173.327 1313.97 188.02C1317.52 202.713 1319.29 218.04 1319.29 234C1319.29 276.813 1309.41 307.72 1289.65 326.72C1269.89 345.467 1240 354.84 1199.97 354.84C1159.94 354.84 1121.44 348.76 1084.45 336.6ZM1175.65 196.76V288.34H1189.71C1200.86 288.34 1208.84 287.2 1213.65 284.92C1218.72 282.64 1221.25 277.32 1221.25 268.96V179.66H1207.19C1200.6 179.66 1195.28 179.913 1191.23 180.42C1187.18 180.927 1183.63 182.573 1180.59 185.36C1177.55 187.893 1175.9 191.693 1175.65 196.76ZM1446.92 348H1355.72V131.4L1446.92 120V348ZM1350.78 77.06C1350.78 70.22 1351.54 64.52 1353.06 59.96C1354.58 55.1467 1357.24 51.3467 1361.04 48.56C1364.84 45.52 1370.03 43.3667 1376.62 42.1C1383.2 40.8333 1391.56 40.2 1401.7 40.2C1411.83 40.2 1420.06 40.8333 1426.4 42.1C1432.98 43.3667 1438.18 45.52 1441.98 48.56C1445.78 51.3467 1448.44 55.1467 1449.96 59.96C1451.48 64.52 1452.24 70.22 1452.24 77.06C1452.24 83.9 1451.48 89.6 1449.96 94.16C1448.44 98.72 1445.78 102.52 1441.98 105.56C1438.18 108.347 1432.98 110.373 1426.4 111.64C1420.06 112.653 1411.83 113.16 1401.7 113.16C1394.35 113.16 1387.51 112.907 1381.18 112.4C1375.1 111.893 1369.78 110.5 1365.22 108.22C1360.66 105.687 1357.11 102.013 1354.58 97.2C1352.04 92.3867 1350.78 85.6733 1350.78 77.06Z" fill="#819FBD"/>
</svg>
